<?xml version="1.0" standalone="no"?>
<!DOCTYPE svg PUBLIC "-//W3C//DTD SVG 20010904//EN"
 "http://www.w3.org/TR/2001/REC-SVG-20010904/DTD/svg10.dtd">
<svg version="1.0" xmlns="http://www.w3.org/2000/svg"
 width="55.000000pt" height="55.000000pt" viewBox="0 0 55.000000 55.000000"
 preserveAspectRatio="xMidYMid meet">
<metadata>
Created by potrace 1.16, written by Peter Selinger 2001-2019
</metadata>
<g transform="translate(0.000000,55.000000) scale(0.100000,-0.100000)"
fill="#000000" stroke="none">
<path d="M450 527 c-69 -29 -137 -75 -178 -121 -23 -26 -40 -36 -61 -36 -41 0
-95 -49 -117 -106 -9 -24 -14 -47 -12 -50 3 -3 22 1 41 9 34 15 35 15 70 -21
25 -26 33 -41 28 -52 -5 -8 -12 -25 -15 -37 -10 -32 16 -30 80 6 51 30 91 87
81 115 -3 7 19 36 49 65 87 86 158 251 107 251 -10 0 -43 -11 -73 -23z"/>
</g>
</svg>
